<?xml version="1.0" encoding="us-ascii" standalone="no"?><svg xmlns="http://www.w3.org/2000/svg" xmlns:xlink="http://www.w3.org/1999/xlink" contentStyleType="text/css" height="211px" preserveAspectRatio="none" style="width:715px;height:211px;background:#FFFFFF;" version="1.1" viewBox="0 0 715 211" width="715px" zoomAndPan="magnify"><defs/><g><line style="stroke:#181818;stroke-width:0.5;stroke-dasharray:5.0,5.0;" x1="55" x2="55" y1="81.4883" y2="130.7988"/><line style="stroke:#181818;stroke-width:0.5;stroke-dasharray:5.0,5.0;" x1="150" x2="150" y1="81.4883" y2="130.7988"/><line style="stroke:#181818;stroke-width:0.5;stroke-dasharray:5.0,5.0;" x1="229" x2="229" y1="81.4883" y2="130.7988"/><line style="stroke:#181818;stroke-width:0.5;stroke-dasharray:5.0,5.0;" x1="306" x2="306" y1="81.4883" y2="130.7988"/><line style="stroke:#181818;stroke-width:0.5;stroke-dasharray:5.0,5.0;" x1="408" x2="408" y1="81.4883" y2="130.7988"/><line style="stroke:#181818;stroke-width:0.5;stroke-dasharray:5.0,5.0;" x1="510" x2="510" y1="81.4883" y2="130.7988"/><line style="stroke:#181818;stroke-width:0.5;stroke-dasharray:5.0,5.0;" x1="578" x2="578" y1="81.4883" y2="130.7988"/><line style="stroke:#181818;stroke-width:0.5;stroke-dasharray:5.0,5.0;" x1="637" x2="637" y1="81.4883" y2="130.7988"/><line style="stroke:#181818;stroke-width:0.5;stroke-dasharray:5.0,5.0;" x1="690" x2="690" y1="81.4883" y2="130.7988"/><text fill="#000000" font-family="sans-serif" font-size="14" lengthAdjust="spacing" textLength="95" x="5" y="78.5352">&#1055;&#1086;&#1083;&#1100;&#1079;&#1086;&#1074;&#1072;&#1090;&#1077;&#1083;&#1100;</text><ellipse cx="55.5" cy="13.5" fill="#E2E2F0" rx="8" ry="8" style="stroke:#181818;stroke-width:0.5;"/><path d="M55.5,21.5 L55.5,48.5 M42.5,29.5 L68.5,29.5 M55.5,48.5 L42.5,63.5 M55.5,48.5 L68.5,63.5 " fill="none" style="stroke:#181818;stroke-width:0.5;"/><text fill="#000000" font-family="sans-serif" font-size="14" lengthAdjust="spacing" textLength="95" x="5" y="143.334">&#1055;&#1086;&#1083;&#1100;&#1079;&#1086;&#1074;&#1072;&#1090;&#1077;&#1083;&#1100;</text><ellipse cx="55.5" cy="154.7871" fill="#E2E2F0" rx="8" ry="8" style="stroke:#181818;stroke-width:0.5;"/><path d="M55.5,162.7871 L55.5,189.7871 M42.5,170.7871 L68.5,170.7871 M55.5,189.7871 L42.5,204.7871 M55.5,189.7871 L68.5,204.7871 " fill="none" style="stroke:#181818;stroke-width:0.5;"/><rect fill="#E2E2F0" height="30.4883" rx="2.5" ry="2.5" style="stroke:#181818;stroke-width:0.5;" width="68" x="116" y="50"/><text fill="#000000" font-family="sans-serif" font-size="14" lengthAdjust="spacing" textLength="54" x="123" y="70.5352">Info bot</text><rect fill="#E2E2F0" height="30.4883" rx="2.5" ry="2.5" style="stroke:#181818;stroke-width:0.5;" width="68" x="116" y="129.7988"/><text fill="#000000" font-family="sans-serif" font-size="14" lengthAdjust="spacing" textLength="54" x="123" y="150.334">Info bot</text><rect fill="#E2E2F0" height="30.4883" rx="2.5" ry="2.5" style="stroke:#181818;stroke-width:0.5;" width="70" x="194" y="50"/><text fill="#000000" font-family="sans-serif" font-size="14" lengthAdjust="spacing" textLength="56" x="201" y="70.5352">mtproto</text><rect fill="#E2E2F0" height="30.4883" rx="2.5" ry="2.5" style="stroke:#181818;stroke-width:0.5;" width="70" x="194" y="129.7988"/><text fill="#000000" font-family="sans-serif" font-size="14" lengthAdjust="spacing" textLength="56" x="201" y="150.334">mtproto</text><rect fill="#E2E2F0" height="30.4883" rx="2.5" ry="2.5" style="stroke:#181818;stroke-width:0.5;" width="65" x="274" y="50"/><text fill="#000000" font-family="sans-serif" font-size="14" lengthAdjust="spacing" textLength="51" x="281" y="70.5352">Buy bot</text><rect fill="#E2E2F0" height="30.4883" rx="2.5" ry="2.5" style="stroke:#181818;stroke-width:0.5;" width="65" x="274" y="129.7988"/><text fill="#000000" font-family="sans-serif" font-size="14" lengthAdjust="spacing" textLength="51" x="281" y="150.334">Buy bot</text><text fill="#000000" font-family="sans-serif" font-size="14" lengthAdjust="spacing" textLength="113" x="349" y="78.5352">Active sellers list</text><path d="M390.5,29 C390.5,19 408.5,19 408.5,19 C408.5,19 426.5,19 426.5,29 L426.5,55 C426.5,65 408.5,65 408.5,65 C408.5,65 390.5,65 390.5,55 L390.5,29 " fill="#E2E2F0" style="stroke:#181818;stroke-width:1.5;"/><path d="M390.5,29 C390.5,39 408.5,39 408.5,39 C408.5,39 426.5,39 426.5,29 " fill="none" style="stroke:#181818;stroke-width:1.5;"/><text fill="#000000" font-family="sans-serif" font-size="14" lengthAdjust="spacing" textLength="113" x="349" y="143.334">Active sellers list</text><path d="M390.5,156.2871 C390.5,146.2871 408.5,146.2871 408.5,146.2871 C408.5,146.2871 426.5,146.2871 426.5,156.2871 L426.5,182.2871 C426.5,192.2871 408.5,192.2871 408.5,192.2871 C408.5,192.2871 390.5,192.2871 390.5,182.2871 L390.5,156.2871 " fill="#E2E2F0" style="stroke:#181818;stroke-width:1.5;"/><path d="M390.5,156.2871 C390.5,166.2871 408.5,166.2871 408.5,166.2871 C408.5,166.2871 426.5,166.2871 426.5,156.2871 " fill="none" style="stroke:#181818;stroke-width:1.5;"/><text fill="#000000" font-family="sans-serif" font-size="14" lengthAdjust="spacing" textLength="59" x="478" y="78.5352">Food list</text><path d="M492.5,29 C492.5,19 510.5,19 510.5,19 C510.5,19 528.5,19 528.5,29 L528.5,55 C528.5,65 510.5,65 510.5,65 C510.5,65 492.5,65 492.5,55 L492.5,29 " fill="#E2E2F0" style="stroke:#181818;stroke-width:1.5;"/><path d="M492.5,29 C492.5,39 510.5,39 510.5,39 C510.5,39 528.5,39 528.5,29 " fill="none" style="stroke:#181818;stroke-width:1.5;"/><text fill="#000000" font-family="sans-serif" font-size="14" lengthAdjust="spacing" textLength="59" x="478" y="143.334">Food list</text><path d="M492.5,156.2871 C492.5,146.2871 510.5,146.2871 510.5,146.2871 C510.5,146.2871 528.5,146.2871 528.5,156.2871 L528.5,182.2871 C528.5,192.2871 510.5,192.2871 510.5,192.2871 C510.5,192.2871 492.5,192.2871 492.5,182.2871 L492.5,156.2871 " fill="#E2E2F0" style="stroke:#181818;stroke-width:1.5;"/><path d="M492.5,156.2871 C492.5,166.2871 510.5,166.2871 510.5,166.2871 C510.5,166.2871 528.5,166.2871 528.5,156.2871 " fill="none" style="stroke:#181818;stroke-width:1.5;"/><path d="M558,55 L598,55 C603,55 603,68.2441 603,68.2441 C603,68.2441 603,81.4883 598,81.4883 L558,81.4883 C553,81.4883 553,68.2441 553,68.2441 C553,68.2441 553,55 558,55 " fill="#E2E2F0" style="stroke:#181818;stroke-width:0.5;"/><path d="M598,55 C593,55 593,68.2441 593,68.2441 C593,81.4883 598,81.4883 598,81.4883 " fill="none" style="stroke:#181818;stroke-width:0.5;"/><text fill="#000000" font-family="sans-serif" font-size="14" lengthAdjust="spacing" textLength="30" x="558" y="73.5352">XMR</text><path d="M558,129.7988 L598,129.7988 C603,129.7988 603,143.043 603,143.043 C603,143.043 603,156.2871 598,156.2871 L558,156.2871 C553,156.2871 553,143.043 553,143.043 C553,143.043 553,129.7988 558,129.7988 " fill="#E2E2F0" style="stroke:#181818;stroke-width:0.5;"/><path d="M598,129.7988 C593,129.7988 593,143.043 593,143.043 C593,156.2871 598,156.2871 598,156.2871 " fill="none" style="stroke:#181818;stroke-width:0.5;"/><text fill="#000000" font-family="sans-serif" font-size="14" lengthAdjust="spacing" textLength="30" x="558" y="148.334">XMR</text><rect fill="#E2E2F0" height="30.4883" rx="2.5" ry="2.5" style="stroke:#181818;stroke-width:0.5;" width="49" x="613" y="50"/><text fill="#000000" font-family="sans-serif" font-size="14" lengthAdjust="spacing" textLength="35" x="620" y="70.5352">Food</text><rect fill="#E2E2F0" height="30.4883" rx="2.5" ry="2.5" style="stroke:#181818;stroke-width:0.5;" width="49" x="613" y="129.7988"/><text fill="#000000" font-family="sans-serif" font-size="14" lengthAdjust="spacing" textLength="35" x="620" y="150.334">Food</text><rect fill="#E2E2F0" height="30.4883" rx="2.5" ry="2.5" style="stroke:#181818;stroke-width:0.5;" width="37" x="672" y="50"/><text fill="#000000" font-family="sans-serif" font-size="14" lengthAdjust="spacing" textLength="23" x="679" y="70.5352">Cat</text><rect fill="#E2E2F0" height="30.4883" rx="2.5" ry="2.5" style="stroke:#181818;stroke-width:0.5;" width="37" x="672" y="129.7988"/><text fill="#000000" font-family="sans-serif" font-size="14" lengthAdjust="spacing" textLength="23" x="679" y="150.334">Cat</text><polygon fill="#181818" points="678.5,108.7988,688.5,112.7988,678.5,116.7988,682.5,112.7988" style="stroke:#181818;stroke-width:1.0;"/><line style="stroke:#181818;stroke-width:1.0;" x1="637.5" x2="684.5" y1="112.7988" y2="112.7988"/><text fill="#000000" font-family="sans-serif" font-size="13" lengthAdjust="spacing" textLength="23" x="644.5" y="108.0566">Eat!</text><!--SRC=[IqmkoIzIW80Byo_ikx3xOi-5xK1wquKD5vikR0NneTA9nGgbnKLS1Ob59Pd9cGM9UIKGSINFlBHyXQJy4YMukimaBCfoImgAyalobR18EPLMeXgGbCILabYIc9HOd0fMu9XSabcMgb2ScfEJMbIia9DP354CL9fOd8Acs2q_FmL5IHfGHM5fQcagr2TA4Rv1IWXVLUGMSN61DUdQAJWdbbWfk2QMA080]--></g></svg>