<?xml version="1.0" encoding="us-ascii" standalone="no"?><svg xmlns="http://www.w3.org/2000/svg" xmlns:xlink="http://www.w3.org/1999/xlink" contentStyleType="text/css" height="1152px" preserveAspectRatio="none" style="width:2728px;height:1152px;background:#FFFFFF;" version="1.1" viewBox="0 0 2728 1152" width="2728px" zoomAndPan="magnify"><defs/><g><line style="stroke:#181818;stroke-width:0.5;stroke-dasharray:5.0,5.0;" x1="82" x2="82" y1="81.4883" y2="1071.4258"/><line style="stroke:#181818;stroke-width:0.5;stroke-dasharray:5.0,5.0;" x1="580" x2="580" y1="81.4883" y2="1071.4258"/><line style="stroke:#181818;stroke-width:0.5;stroke-dasharray:5.0,5.0;" x1="990.5" x2="990.5" y1="81.4883" y2="1071.4258"/><line style="stroke:#181818;stroke-width:0.5;stroke-dasharray:5.0,5.0;" x1="1261.5" x2="1261.5" y1="81.4883" y2="1071.4258"/><line style="stroke:#181818;stroke-width:0.5;stroke-dasharray:5.0,5.0;" x1="1702" x2="1702" y1="81.4883" y2="1071.4258"/><line style="stroke:#181818;stroke-width:0.5;stroke-dasharray:5.0,5.0;" x1="2237" x2="2237" y1="81.4883" y2="1071.4258"/><line style="stroke:#181818;stroke-width:0.5;stroke-dasharray:5.0,5.0;" x1="2333" x2="2333" y1="81.4883" y2="1071.4258"/><line style="stroke:#181818;stroke-width:0.5;stroke-dasharray:5.0,5.0;" x1="2401" x2="2401" y1="81.4883" y2="1071.4258"/><line style="stroke:#181818;stroke-width:0.5;stroke-dasharray:5.0,5.0;" x1="2469" x2="2469" y1="81.4883" y2="1071.4258"/><line style="stroke:#181818;stroke-width:0.5;stroke-dasharray:5.0,5.0;" x1="2531" x2="2531" y1="81.4883" y2="1071.4258"/><rect fill="#E2E2F0" height="30.4883" rx="2.5" ry="2.5" style="stroke:#181818;stroke-width:0.5;" width="155" x="5" y="50"/><text fill="#000000" font-family="sans-serif" font-size="14" lengthAdjust="spacing" textLength="141" x="12" y="70.5352">&#1057;&#1086;&#1094;.&#1089;&#1077;&#1090;&#1080; &#1080;&#1085;&#1086;&#1072;&#1075;&#1077;&#1085;&#1090;&#1072;</text><rect fill="#E2E2F0" height="30.4883" rx="2.5" ry="2.5" style="stroke:#181818;stroke-width:0.5;" width="155" x="5" y="1070.4258"/><text fill="#000000" font-family="sans-serif" font-size="14" lengthAdjust="spacing" textLength="141" x="12" y="1090.9609">&#1057;&#1086;&#1094;.&#1089;&#1077;&#1090;&#1080; &#1080;&#1085;&#1086;&#1072;&#1075;&#1077;&#1085;&#1090;&#1072;</text><text fill="#000000" font-family="sans-serif" font-size="14" lengthAdjust="spacing" textLength="95" x="530" y="78.5352">&#1055;&#1086;&#1083;&#1100;&#1079;&#1086;&#1074;&#1072;&#1090;&#1077;&#1083;&#1100;</text><ellipse cx="580.5" cy="13.5" fill="#E2E2F0" rx="8" ry="8" style="stroke:#181818;stroke-width:0.5;"/><path d="M580.5,21.5 L580.5,48.5 M567.5,29.5 L593.5,29.5 M580.5,48.5 L567.5,63.5 M580.5,48.5 L593.5,63.5 " fill="none" style="stroke:#181818;stroke-width:0.5;"/><text fill="#000000" font-family="sans-serif" font-size="14" lengthAdjust="spacing" textLength="95" x="530" y="1083.9609">&#1055;&#1086;&#1083;&#1100;&#1079;&#1086;&#1074;&#1072;&#1090;&#1077;&#1083;&#1100;</text><ellipse cx="580.5" cy="1095.4141" fill="#E2E2F0" rx="8" ry="8" style="stroke:#181818;stroke-width:0.5;"/><path d="M580.5,1103.4141 L580.5,1130.4141 M567.5,1111.4141 L593.5,1111.4141 M580.5,1130.4141 L567.5,1145.4141 M580.5,1130.4141 L593.5,1145.4141 " fill="none" style="stroke:#181818;stroke-width:0.5;"/><rect fill="#E2E2F0" height="30.4883" rx="2.5" ry="2.5" style="stroke:#181818;stroke-width:0.5;" width="68" x="956.5" y="50"/><text fill="#000000" font-family="sans-serif" font-size="14" lengthAdjust="spacing" textLength="54" x="963.5" y="70.5352">Info bot</text><rect fill="#E2E2F0" height="30.4883" rx="2.5" ry="2.5" style="stroke:#181818;stroke-width:0.5;" width="68" x="956.5" y="1070.4258"/><text fill="#000000" font-family="sans-serif" font-size="14" lengthAdjust="spacing" textLength="54" x="963.5" y="1090.9609">Info bot</text><rect fill="#E2E2F0" height="30.4883" rx="2.5" ry="2.5" style="stroke:#181818;stroke-width:0.5;" width="70" x="1226.5" y="50"/><text fill="#000000" font-family="sans-serif" font-size="14" lengthAdjust="spacing" textLength="56" x="1233.5" y="70.5352">mtproto</text><rect fill="#E2E2F0" height="30.4883" rx="2.5" ry="2.5" style="stroke:#181818;stroke-width:0.5;" width="70" x="1226.5" y="1070.4258"/><text fill="#000000" font-family="sans-serif" font-size="14" lengthAdjust="spacing" textLength="56" x="1233.5" y="1090.9609">mtproto</text><rect fill="#E2E2F0" height="30.4883" rx="2.5" ry="2.5" style="stroke:#181818;stroke-width:0.5;" width="65" x="1670" y="50"/><text fill="#000000" font-family="sans-serif" font-size="14" lengthAdjust="spacing" textLength="51" x="1677" y="70.5352">Buy bot</text><rect fill="#E2E2F0" height="30.4883" rx="2.5" ry="2.5" style="stroke:#181818;stroke-width:0.5;" width="65" x="1670" y="1070.4258"/><text fill="#000000" font-family="sans-serif" font-size="14" lengthAdjust="spacing" textLength="51" x="1677" y="1090.9609">Buy bot</text><text fill="#000000" font-family="sans-serif" font-size="14" lengthAdjust="spacing" textLength="113" x="2178" y="78.5352">Active sellers list</text><path d="M2219.5,29 C2219.5,19 2237.5,19 2237.5,19 C2237.5,19 2255.5,19 2255.5,29 L2255.5,55 C2255.5,65 2237.5,65 2237.5,65 C2237.5,65 2219.5,65 2219.5,55 L2219.5,29 " fill="#E2E2F0" style="stroke:#181818;stroke-width:1.5;"/><path d="M2219.5,29 C2219.5,39 2237.5,39 2237.5,39 C2237.5,39 2255.5,39 2255.5,29 " fill="none" style="stroke:#181818;stroke-width:1.5;"/><text fill="#000000" font-family="sans-serif" font-size="14" lengthAdjust="spacing" textLength="113" x="2178" y="1083.9609">Active sellers list</text><path d="M2219.5,1096.9141 C2219.5,1086.9141 2237.5,1086.9141 2237.5,1086.9141 C2237.5,1086.9141 2255.5,1086.9141 2255.5,1096.9141 L2255.5,1122.9141 C2255.5,1132.9141 2237.5,1132.9141 2237.5,1132.9141 C2237.5,1132.9141 2219.5,1132.9141 2219.5,1122.9141 L2219.5,1096.9141 " fill="#E2E2F0" style="stroke:#181818;stroke-width:1.5;"/><path d="M2219.5,1096.9141 C2219.5,1106.9141 2237.5,1106.9141 2237.5,1106.9141 C2237.5,1106.9141 2255.5,1106.9141 2255.5,1096.9141 " fill="none" style="stroke:#181818;stroke-width:1.5;"/><rect fill="#E2E2F0" height="30.4883" rx="2.5" ry="2.5" style="stroke:#181818;stroke-width:0.5;" width="52" x="2307" y="50"/><text fill="#000000" font-family="sans-serif" font-size="14" lengthAdjust="spacing" textLength="38" x="2314" y="70.5352">Seller</text><rect fill="#E2E2F0" height="30.4883" rx="2.5" ry="2.5" style="stroke:#181818;stroke-width:0.5;" width="52" x="2307" y="1070.4258"/><text fill="#000000" font-family="sans-serif" font-size="14" lengthAdjust="spacing" textLength="38" x="2314" y="1090.9609">Seller</text><text fill="#000000" font-family="sans-serif" font-size="14" lengthAdjust="spacing" textLength="59" x="2369" y="78.5352">Food list</text><path d="M2383.5,29 C2383.5,19 2401.5,19 2401.5,19 C2401.5,19 2419.5,19 2419.5,29 L2419.5,55 C2419.5,65 2401.5,65 2401.5,65 C2401.5,65 2383.5,65 2383.5,55 L2383.5,29 " fill="#E2E2F0" style="stroke:#181818;stroke-width:1.5;"/><path d="M2383.5,29 C2383.5,39 2401.5,39 2401.5,39 C2401.5,39 2419.5,39 2419.5,29 " fill="none" style="stroke:#181818;stroke-width:1.5;"/><text fill="#000000" font-family="sans-serif" font-size="14" lengthAdjust="spacing" textLength="59" x="2369" y="1083.9609">Food list</text><path d="M2383.5,1096.9141 C2383.5,1086.9141 2401.5,1086.9141 2401.5,1086.9141 C2401.5,1086.9141 2419.5,1086.9141 2419.5,1096.9141 L2419.5,1122.9141 C2419.5,1132.9141 2401.5,1132.9141 2401.5,1132.9141 C2401.5,1132.9141 2383.5,1132.9141 2383.5,1122.9141 L2383.5,1096.9141 " fill="#E2E2F0" style="stroke:#181818;stroke-width:1.5;"/><path d="M2383.5,1096.9141 C2383.5,1106.9141 2401.5,1106.9141 2401.5,1106.9141 C2401.5,1106.9141 2419.5,1106.9141 2419.5,1096.9141 " fill="none" style="stroke:#181818;stroke-width:1.5;"/><path d="M2449,55 L2489,55 C2494,55 2494,68.2441 2494,68.2441 C2494,68.2441 2494,81.4883 2489,81.4883 L2449,81.4883 C2444,81.4883 2444,68.2441 2444,68.2441 C2444,68.2441 2444,55 2449,55 " fill="#E2E2F0" style="stroke:#181818;stroke-width:0.5;"/><path d="M2489,55 C2484,55 2484,68.2441 2484,68.2441 C2484,81.4883 2489,81.4883 2489,81.4883 " fill="none" style="stroke:#181818;stroke-width:0.5;"/><text fill="#000000" font-family="sans-serif" font-size="14" lengthAdjust="spacing" textLength="30" x="2449" y="73.5352">XMR</text><path d="M2449,1070.4258 L2489,1070.4258 C2494,1070.4258 2494,1083.6699 2494,1083.6699 C2494,1083.6699 2494,1096.9141 2489,1096.9141 L2449,1096.9141 C2444,1096.9141 2444,1083.6699 2444,1083.6699 C2444,1083.6699 2444,1070.4258 2449,1070.4258 " fill="#E2E2F0" style="stroke:#181818;stroke-width:0.5;"/><path d="M2489,1070.4258 C2484,1070.4258 2484,1083.6699 2484,1083.6699 C2484,1096.9141 2489,1096.9141 2489,1096.9141 " fill="none" style="stroke:#181818;stroke-width:0.5;"/><text fill="#000000" font-family="sans-serif" font-size="14" lengthAdjust="spacing" textLength="30" x="2449" y="1088.9609">XMR</text><path d="M2509,55 L2553,55 C2558,55 2558,68.2441 2558,68.2441 C2558,68.2441 2558,81.4883 2553,81.4883 L2509,81.4883 C2504,81.4883 2504,68.2441 2504,68.2441 C2504,68.2441 2504,55 2509,55 " fill="#E2E2F0" style="stroke:#181818;stroke-width:0.5;"/><path d="M2553,55 C2548,55 2548,68.2441 2548,68.2441 C2548,81.4883 2553,81.4883 2553,81.4883 " fill="none" style="stroke:#181818;stroke-width:0.5;"/><text fill="#000000" font-family="sans-serif" font-size="14" lengthAdjust="spacing" textLength="34" x="2509" y="73.5352">&#1060;&#1080;&#1072;&#1090;</text><path d="M2509,1070.4258 L2553,1070.4258 C2558,1070.4258 2558,1083.6699 2558,1083.6699 C2558,1083.6699 2558,1096.9141 2553,1096.9141 L2509,1096.9141 C2504,1096.9141 2504,1083.6699 2504,1083.6699 C2504,1083.6699 2504,1070.4258 2509,1070.4258 " fill="#E2E2F0" style="stroke:#181818;stroke-width:0.5;"/><path d="M2553,1070.4258 C2548,1070.4258 2548,1083.6699 2548,1083.6699 C2548,1096.9141 2553,1096.9141 2553,1096.9141 " fill="none" style="stroke:#181818;stroke-width:0.5;"/><text fill="#000000" font-family="sans-serif" font-size="14" lengthAdjust="spacing" textLength="34" x="2509" y="1088.9609">&#1060;&#1080;&#1072;&#1090;</text><line style="stroke:#181818;stroke-width:1.0;stroke-dasharray:2.0,2.0;" x1="580.5" x2="622.5" y1="112.7988" y2="112.7988"/><line style="stroke:#181818;stroke-width:1.0;stroke-dasharray:2.0,2.0;" x1="622.5" x2="622.5" y1="112.7988" y2="125.7988"/><line style="stroke:#181818;stroke-width:1.0;stroke-dasharray:2.0,2.0;" x1="581.5" x2="622.5" y1="125.7988" y2="125.7988"/><polygon fill="#181818" points="591.5,121.7988,581.5,125.7988,591.5,129.7988,587.5,125.7988" style="stroke:#181818;stroke-width:1.0;"/><text fill="#000000" font-family="sans-serif" font-size="13" lengthAdjust="spacing" textLength="147" x="587.5" y="108.0566">&#1061;&#1086;&#1095;&#1077;&#1090; &#1087;&#1077;&#1088;&#1077;&#1074;&#1077;&#1089;&#1090;&#1080; &#1076;&#1086;&#1085;&#1072;&#1090;</text><polygon fill="#181818" points="93.5,151.1094,83.5,155.1094,93.5,159.1094,89.5,155.1094" style="stroke:#181818;stroke-width:1.0;"/><line style="stroke:#181818;stroke-width:1.0;" x1="87.5" x2="579.5" y1="155.1094" y2="155.1094"/><text fill="#000000" font-family="sans-serif" font-size="13" lengthAdjust="spacing" textLength="474" x="99.5" y="150.3672">&#1055;&#1086;&#1083;&#1091;&#1095;&#1072;&#1077;&#1090; &#1080;&#1079; &#1089;&#1086;&#1094;&#1089;&#1077;&#1090;&#1080; &#1080;&#1076;&#1077;&#1085;&#1090;&#1080;&#1092;&#1080;&#1082;&#1072;&#1090;&#1086;&#1088;, &#1082;&#1086;&#1090;&#1086;&#1088;&#1099;&#1081; &#1073;&#1099;&#1083; &#1089;&#1086;&#1079;&#1076;&#1072;&#1085; &#1074; Get Food bot</text><polygon fill="#181818" points="568.5,180.4199,578.5,184.4199,568.5,188.4199,572.5,184.4199" style="stroke:#181818;stroke-width:1.0;"/><line style="stroke:#181818;stroke-width:1.0;stroke-dasharray:2.0,2.0;" x1="82.5" x2="574.5" y1="184.4199" y2="184.4199"/><text fill="#000000" font-family="sans-serif" font-size="13" lengthAdjust="spacing" textLength="228" x="89.5" y="179.6777">&#1040;&#1085;&#1086;&#1085;&#1080;&#1084;&#1085;&#1099;&#1081; &#1080;&#1076;&#1077;&#1085;&#1090;&#1080;&#1092;&#1080;&#1082;&#1072;&#1090;&#1086;&#1088; &#1076;&#1086;&#1085;&#1072;&#1090;&#1072;</text><polygon fill="#181818" points="978.5,209.7305,988.5,213.7305,978.5,217.7305,982.5,213.7305" style="stroke:#181818;stroke-width:1.0;"/><line style="stroke:#181818;stroke-width:1.0;" x1="580.5" x2="984.5" y1="213.7305" y2="213.7305"/><text fill="#000000" font-family="sans-serif" font-size="13" lengthAdjust="spacing" textLength="36" x="587.5" y="208.9883">/start</text><polygon fill="#181818" points="591.5,239.041,581.5,243.041,591.5,247.041,587.5,243.041" style="stroke:#181818;stroke-width:1.0;"/><line style="stroke:#181818;stroke-width:1.0;stroke-dasharray:2.0,2.0;" x1="585.5" x2="989.5" y1="243.041" y2="243.041"/><text fill="#000000" font-family="sans-serif" font-size="13" lengthAdjust="spacing" textLength="386" x="597.5" y="238.2988">&#1048;&#1085;&#1092;&#1086;&#1088;&#1084;&#1072;&#1094;&#1080;&#1102; &#1086; &#1073;&#1086;&#1090;&#1077; &#1089; &#1087;&#1088;&#1077;&#1076;&#1083;&#1086;&#1078;&#1077;&#1085;&#1080;&#1077;&#1084; &#1085;&#1072;&#1095;&#1072;&#1090;&#1100; &#1085;&#1086;&#1074;&#1091;&#1102; &#1089;&#1077;&#1089;&#1089;&#1080;&#1102;</text><polygon fill="#181818" points="978.5,268.3516,988.5,272.3516,978.5,276.3516,982.5,272.3516" style="stroke:#181818;stroke-width:1.0;"/><line style="stroke:#181818;stroke-width:1.0;" x1="580.5" x2="984.5" y1="272.3516" y2="272.3516"/><text fill="#000000" font-family="sans-serif" font-size="13" lengthAdjust="spacing" textLength="200" x="587.5" y="267.6094">&#1053;&#1072;&#1078;&#1072;&#1090;&#1080;&#1077; &#1082;&#1085;&#1086;&#1087;&#1082;&#1080; "&#1085;&#1086;&#1074;&#1099;&#1081; &#1076;&#1086;&#1085;&#1072;&#1090;"</text><polygon fill="#181818" points="1249.5,297.6621,1259.5,301.6621,1249.5,305.6621,1253.5,301.6621" style="stroke:#181818;stroke-width:1.0;"/><line style="stroke:#181818;stroke-width:1.0;" x1="990.5" x2="1255.5" y1="301.6621" y2="301.6621"/><text fill="#000000" font-family="sans-serif" font-size="13" lengthAdjust="spacing" textLength="223" x="997.5" y="296.9199">&#1057;&#1086;&#1079;&#1076;&#1072;&#1085;&#1080;&#1077; &#1085;&#1086;&#1074;&#1086;&#1075;&#1086; &#1087;&#1083;&#1072;&#1078;&#1077;&#1090;&#1085;&#1086;&#1075;&#1086; &#1073;&#1086;&#1090;&#1072;</text><polygon fill="#181818" points="1001.5,326.9727,991.5,330.9727,1001.5,334.9727,997.5,330.9727" style="stroke:#181818;stroke-width:1.0;"/><line style="stroke:#181818;stroke-width:1.0;stroke-dasharray:2.0,2.0;" x1="995.5" x2="1260.5" y1="330.9727" y2="330.9727"/><text fill="#000000" font-family="sans-serif" font-size="13" lengthAdjust="spacing" textLength="247" x="1007.5" y="326.2305">&#1048;&#1085;&#1092;&#1086;&#1088;&#1084;&#1072;&#1094;&#1080;&#1103; &#1086; &#1085;&#1086;&#1074;&#1086;&#1084; &#1087;&#1083;&#1072;&#1090;&#1077;&#1078;&#1085;&#1086;&#1084; &#1073;&#1086;&#1090;&#1077;</text><polygon fill="#181818" points="591.5,356.2832,581.5,360.2832,591.5,364.2832,587.5,360.2832" style="stroke:#181818;stroke-width:1.0;"/><line style="stroke:#181818;stroke-width:1.0;stroke-dasharray:2.0,2.0;" x1="585.5" x2="989.5" y1="360.2832" y2="360.2832"/><text fill="#000000" font-family="sans-serif" font-size="13" lengthAdjust="spacing" textLength="247" x="597.5" y="355.541">&#1048;&#1085;&#1092;&#1086;&#1088;&#1084;&#1072;&#1094;&#1080;&#1103; &#1086; &#1085;&#1086;&#1074;&#1086;&#1084; &#1087;&#1083;&#1072;&#1090;&#1077;&#1078;&#1085;&#1086;&#1084; &#1073;&#1086;&#1090;&#1077;</text><polygon fill="#181818" points="1690.5,385.5938,1700.5,389.5938,1690.5,393.5938,1694.5,389.5938" style="stroke:#181818;stroke-width:1.0;"/><line style="stroke:#181818;stroke-width:1.0;" x1="580.5" x2="1696.5" y1="389.5938" y2="389.5938"/><text fill="#000000" font-family="sans-serif" font-size="13" lengthAdjust="spacing" textLength="180" x="587.5" y="384.8516">&#1055;&#1077;&#1088;&#1077;&#1093;&#1086;&#1076; &#1074; &#1087;&#1083;&#1072;&#1090;&#1077;&#1078;&#1085;&#1086;&#1075;&#1086; &#1073;&#1086;&#1090;&#1072;</text><polygon fill="#181818" points="1690.5,414.9043,1700.5,418.9043,1690.5,422.9043,1694.5,418.9043" style="stroke:#181818;stroke-width:1.0;"/><line style="stroke:#181818;stroke-width:1.0;" x1="580.5" x2="1696.5" y1="418.9043" y2="418.9043"/><text fill="#000000" font-family="sans-serif" font-size="13" lengthAdjust="spacing" textLength="314" x="587.5" y="414.1621">&#1048;&#1076;&#1077;&#1085;&#1090;&#1080;&#1092;&#1080;&#1082;&#1072;&#1090;&#1086;&#1088; &#1094;&#1077;&#1083;&#1077;&#1074;&#1086;&#1081; &#1087;&#1083;&#1072;&#1090;&#1092;&#1086;&#1088;&#1084;&#1099; &#1076;&#1083;&#1103; &#1076;&#1086;&#1085;&#1072;&#1090;&#1072;</text><polygon fill="#181818" points="2389.5,444.2148,2399.5,448.2148,2389.5,452.2148,2393.5,448.2148" style="stroke:#181818;stroke-width:1.0;"/><line style="stroke:#181818;stroke-width:1.0;" x1="1702.5" x2="2395.5" y1="448.2148" y2="448.2148"/><text fill="#000000" font-family="sans-serif" font-size="13" lengthAdjust="spacing" textLength="285" x="1709.5" y="443.4727">&#1055;&#1088;&#1086;&#1074;&#1077;&#1088;&#1082;&#1072; &#1080; &#1089;&#1086;&#1087;&#1086;&#1089;&#1090;&#1072;&#1074;&#1083;&#1077;&#1085;&#1080;&#1077; &#1080;&#1076;&#1077;&#1085;&#1090;&#1080;&#1092;&#1080;&#1082;&#1072;&#1090;&#1086;&#1088;&#1072;</text><polygon fill="#181818" points="1713.5,473.5254,1703.5,477.5254,1713.5,481.5254,1709.5,477.5254" style="stroke:#181818;stroke-width:1.0;"/><line style="stroke:#181818;stroke-width:1.0;" x1="1707.5" x2="2400.5" y1="477.5254" y2="477.5254"/><text fill="#000000" font-family="sans-serif" font-size="13" lengthAdjust="spacing" textLength="321" x="1719.5" y="472.7832">&#1055;&#1086;&#1083;&#1091;&#1095;&#1077;&#1085;&#1080;&#1077; &#1080;&#1085;&#1092;&#1086;&#1088;&#1084;&#1072;&#1094;&#1080;&#1080; &#1086; &#1076;&#1086;&#1089;&#1090;&#1091;&#1087;&#1085;&#1086;&#1089;&#1090;&#1080; &#1082;&#1086;&#1096;&#1077;&#1083;&#1100;&#1082;&#1072;</text><polygon fill="#181818" points="2225.5,502.8359,2235.5,506.8359,2225.5,510.8359,2229.5,506.8359" style="stroke:#181818;stroke-width:1.0;"/><line style="stroke:#181818;stroke-width:1.0;" x1="1702.5" x2="2231.5" y1="506.8359" y2="506.8359"/><text fill="#000000" font-family="sans-serif" font-size="13" lengthAdjust="spacing" textLength="511" x="1709.5" y="502.0938">&#1055;&#1088;&#1086;&#1074;&#1077;&#1088;&#1082;&#1072; &#1072;&#1082;&#1090;&#1080;&#1074;&#1085;&#1099;&#1093; &#1087;&#1088;&#1077;&#1076;&#1083;&#1086;&#1078;&#1077;&#1085;&#1080;&#1081;, &#1074;&#1099;&#1073;&#1086;&#1088; &#1089;&#1072;&#1084;&#1086;&#1075;&#1086; &#1074;&#1099;&#1075;&#1086;&#1076;&#1085;&#1086;&#1075;&#1086; &#1085;&#1072; &#1076;&#1072;&#1085;&#1085;&#1099;&#1081; &#1084;&#1086;&#1084;&#1077;&#1085;&#1090;</text><polygon fill="#181818" points="1713.5,532.1465,1703.5,536.1465,1713.5,540.1465,1709.5,536.1465" style="stroke:#181818;stroke-width:1.0;"/><line style="stroke:#181818;stroke-width:1.0;stroke-dasharray:2.0,2.0;" x1="1707.5" x2="2236.5" y1="536.1465" y2="536.1465"/><text fill="#000000" font-family="sans-serif" font-size="13" lengthAdjust="spacing" textLength="253" x="1719.5" y="531.4043">&#1042;&#1099;&#1073;&#1086;&#1088; &#1089;&#1072;&#1084;&#1086;&#1075;&#1086; &#1074;&#1099;&#1075;&#1086;&#1076;&#1085;&#1086;&#1075;&#1086; &#1087;&#1088;&#1077;&#1076;&#1083;&#1086;&#1078;&#1077;&#1085;&#1080;&#1103;</text><polygon fill="#181818" points="591.5,561.457,581.5,565.457,591.5,569.457,587.5,565.457" style="stroke:#181818;stroke-width:1.0;"/><line style="stroke:#181818;stroke-width:1.0;stroke-dasharray:2.0,2.0;" x1="585.5" x2="1701.5" y1="565.457" y2="565.457"/><text fill="#000000" font-family="sans-serif" font-size="13" lengthAdjust="spacing" textLength="351" x="597.5" y="560.7148">&#1054;&#1090;&#1087;&#1088;&#1072;&#1074;&#1082;&#1072; &#1080;&#1085;&#1092;&#1086;&#1088;&#1084;&#1072;&#1094;&#1080;&#1080; &#1087;&#1086;&#1083;&#1100;&#1079;&#1086;&#1074;&#1072;&#1090;&#1077;&#1083;&#1102;, &#1087;&#1086;&#1076;&#1090;&#1074;&#1077;&#1088;&#1078;&#1076;&#1077;&#1085;&#1080;&#1077;</text><polygon fill="#181818" points="1690.5,590.7676,1700.5,594.7676,1690.5,598.7676,1694.5,594.7676" style="stroke:#181818;stroke-width:1.0;"/><line style="stroke:#181818;stroke-width:1.0;" x1="580.5" x2="1696.5" y1="594.7676" y2="594.7676"/><text fill="#000000" font-family="sans-serif" font-size="13" lengthAdjust="spacing" textLength="141" x="587.5" y="590.0254">&#1057;&#1086;&#1075;&#1083;&#1072;&#1089;&#1080;&#1077; &#1085;&#1072; &#1086;&#1090;&#1087;&#1088;&#1072;&#1074;&#1082;&#1091;</text><polygon fill="#181818" points="2321,623.0781,2331,627.0781,2321,631.0781,2325,627.0781" style="stroke:#181818;stroke-width:1.0;"/><line style="stroke:#181818;stroke-width:1.0;" x1="1702.5" x2="2327" y1="627.0781" y2="627.0781"/><text fill="#000000" font-family="sans-serif" font-size="13" lengthAdjust="spacing" textLength="184" x="1709.5" y="622.3359">&#1055;&#1088;&#1086;&#1074;&#1077;&#1088;&#1082;&#1072; &#1072;&#1082;&#1090;&#1080;&#1074;&#1085;&#1086;&#1089;&#1090;&#1080; &#1079;&#1072;&#1103;&#1074;&#1082;&#1080;</text><path d="M2338,607.7676 L2338,632.7676 L2721,632.7676 L2721,617.7676 L2711,607.7676 L2338,607.7676 " fill="#FEFFDD" style="stroke:#181818;stroke-width:0.5;"/><path d="M2711,607.7676 L2711,617.7676 L2721,617.7676 L2711,607.7676 " fill="#FEFFDD" style="stroke:#181818;stroke-width:0.5;"/><text fill="#000000" font-family="sans-serif" font-size="13" lengthAdjust="spacing" textLength="362" x="2344" y="625.3359">&#1057;&#1074;&#1103;&#1079;&#1100; &#1089; &#1087;&#1088;&#1086;&#1076;&#1072;&#1074;&#1094;&#1086;&#1084; &#1087;&#1088;&#1086;&#1080;&#1089;&#1093;&#1086;&#1076;&#1080;&#1090; &#1095;&#1077;&#1088;&#1077;&#1079; &#1073;&#1086;&#1090;&#1072; sell food bot</text><polygon fill="#181818" points="1713.5,655.3887,1703.5,659.3887,1713.5,663.3887,1709.5,659.3887" style="stroke:#181818;stroke-width:1.0;"/><line style="stroke:#181818;stroke-width:1.0;" x1="1707.5" x2="2332" y1="659.3887" y2="659.3887"/><text fill="#000000" font-family="sans-serif" font-size="13" lengthAdjust="spacing" textLength="149" x="1719.5" y="654.6465">&#1055;&#1086;&#1076;&#1090;&#1074;&#1077;&#1088;&#1078;&#1076;&#1077;&#1085;&#1080;&#1077; &#1079;&#1072;&#1103;&#1074;&#1082;&#1080;</text><polygon fill="#181818" points="1713.5,684.6992,1703.5,688.6992,1713.5,692.6992,1709.5,688.6992" style="stroke:#181818;stroke-width:1.0;"/><line style="stroke:#181818;stroke-width:1.0;" x1="1707.5" x2="2332" y1="688.6992" y2="688.6992"/><text fill="#000000" font-family="sans-serif" font-size="13" lengthAdjust="spacing" textLength="163" x="1719.5" y="683.957">&#1054;&#1090;&#1087;&#1088;&#1072;&#1074;&#1082;&#1072; &#1092;&#1080;&#1072;&#1090;&#1085;&#1086;&#1075;&#1086; &#1089;&#1095;&#1077;&#1090;&#1072;</text><polygon fill="#181818" points="591.5,714.0098,581.5,718.0098,591.5,722.0098,587.5,718.0098" style="stroke:#181818;stroke-width:1.0;"/><line style="stroke:#181818;stroke-width:1.0;stroke-dasharray:2.0,2.0;" x1="585.5" x2="1701.5" y1="718.0098" y2="718.0098"/><text fill="#000000" font-family="sans-serif" font-size="13" lengthAdjust="spacing" textLength="219" x="597.5" y="713.2676">&#1048;&#1085;&#1092;&#1086;&#1088;&#1084;&#1072;&#1094;&#1080;&#1103; &#1076;&#1083;&#1103; &#1087;&#1077;&#1088;&#1077;&#1074;&#1086;&#1076;&#1072; &#1092;&#1080;&#1072;&#1090;&#1072;</text><polygon fill="#181818" points="2519,743.3203,2529,747.3203,2519,751.3203,2523,747.3203" style="stroke:#181818;stroke-width:1.0;"/><line style="stroke:#181818;stroke-width:1.0;" x1="580.5" x2="2525" y1="747.3203" y2="747.3203"/><text fill="#000000" font-family="sans-serif" font-size="13" lengthAdjust="spacing" textLength="98" x="587.5" y="742.5781">&#1055;&#1077;&#1088;&#1077;&#1074;&#1086;&#1076; &#1092;&#1080;&#1072;&#1090;&#1072;</text><polygon fill="#181818" points="1690.5,772.6309,1700.5,776.6309,1690.5,780.6309,1694.5,776.6309" style="stroke:#181818;stroke-width:1.0;"/><line style="stroke:#181818;stroke-width:1.0;" x1="580.5" x2="1696.5" y1="776.6309" y2="776.6309"/><text fill="#000000" font-family="sans-serif" font-size="13" lengthAdjust="spacing" textLength="168" x="587.5" y="771.8887">&#1055;&#1086;&#1076;&#1090;&#1074;&#1077;&#1088;&#1078;&#1076;&#1077;&#1085;&#1080;&#1077; &#1087;&#1077;&#1088;&#1077;&#1074;&#1086;&#1076;&#1072;</text><polygon fill="#181818" points="2321,801.9414,2331,805.9414,2321,809.9414,2325,805.9414" style="stroke:#181818;stroke-width:1.0;"/><line style="stroke:#181818;stroke-width:1.0;" x1="1702.5" x2="2327" y1="805.9414" y2="805.9414"/><text fill="#000000" font-family="sans-serif" font-size="13" lengthAdjust="spacing" textLength="168" x="1709.5" y="801.1992">&#1055;&#1086;&#1076;&#1090;&#1074;&#1077;&#1088;&#1078;&#1076;&#1077;&#1085;&#1080;&#1077; &#1087;&#1077;&#1088;&#1077;&#1074;&#1086;&#1076;&#1072;</text><polygon fill="#181818" points="2457,831.252,2467,835.252,2457,839.252,2461,835.252" style="stroke:#181818;stroke-width:1.0;"/><line style="stroke:#181818;stroke-width:1.0;" x1="1702.5" x2="2463" y1="835.252" y2="835.252"/><text fill="#000000" font-family="sans-serif" font-size="13" lengthAdjust="spacing" textLength="223" x="1709.5" y="830.5098">&#1057;&#1086;&#1079;&#1076;&#1072;&#1085;&#1080;&#1077; &#1086;&#1076;&#1085;&#1086;&#1088;&#1072;&#1079;&#1086;&#1074;&#1086;&#1075;&#1086; &#1082;&#1086;&#1096;&#1077;&#1083;&#1100;&#1082;&#1072;</text><polygon fill="#181818" points="2321,860.5625,2331,864.5625,2321,868.5625,2325,864.5625" style="stroke:#181818;stroke-width:1.0;"/><line style="stroke:#181818;stroke-width:1.0;" x1="1702.5" x2="2327" y1="864.5625" y2="864.5625"/><text fill="#000000" font-family="sans-serif" font-size="13" lengthAdjust="spacing" textLength="349" x="1709.5" y="859.8203">&#1054;&#1090;&#1087;&#1088;&#1072;&#1074;&#1082;&#1072; &#1080;&#1085;&#1092;&#1086;&#1088;&#1084;&#1072;&#1094;&#1080;&#1080; &#1086; &#1082;&#1086;&#1096;&#1077;&#1083;&#1100;&#1082;&#1077; XMR &#1076;&#1083;&#1103; &#1087;&#1077;&#1088;&#1077;&#1074;&#1086;&#1076;&#1072;</text><polygon fill="#181818" points="2457,889.873,2467,893.873,2457,897.873,2461,893.873" style="stroke:#181818;stroke-width:1.0;"/><line style="stroke:#181818;stroke-width:1.0;" x1="2333" x2="2463" y1="893.873" y2="893.873"/><text fill="#000000" font-family="sans-serif" font-size="13" lengthAdjust="spacing" textLength="97" x="2340" y="889.1309">&#1055;&#1077;&#1088;&#1077;&#1074;&#1086;&#1076; &#1076;&#1077;&#1085;&#1077;&#1075;</text><polygon fill="#181818" points="2457,919.1836,2467,923.1836,2457,927.1836,2461,923.1836" style="stroke:#181818;stroke-width:1.0;"/><line style="stroke:#181818;stroke-width:1.0;" x1="1702.5" x2="2463" y1="923.1836" y2="923.1836"/><text fill="#000000" font-family="sans-serif" font-size="13" lengthAdjust="spacing" textLength="127" x="1709.5" y="918.4414">&#1055;&#1088;&#1086;&#1074;&#1077;&#1088;&#1082;&#1072; &#1087;&#1077;&#1088;&#1077;&#1074;&#1086;&#1076;&#1072;</text><polygon fill="#181818" points="2321,948.4941,2331,952.4941,2321,956.4941,2325,952.4941" style="stroke:#181818;stroke-width:1.0;"/><line style="stroke:#181818;stroke-width:1.0;" x1="1702.5" x2="2327" y1="952.4941" y2="952.4941"/><text fill="#000000" font-family="sans-serif" font-size="13" lengthAdjust="spacing" textLength="450" x="1709.5" y="947.752">&#1055;&#1077;&#1088;&#1077;&#1074;&#1086;&#1076; &#1089; &#1087;&#1088;&#1086;&#1084;&#1077;&#1078;&#1091;&#1090;&#1086;&#1095;&#1085;&#1086;&#1075;&#1086; &#1089;&#1095;&#1077;&#1090;&#1072; &#1085;&#1072; &#1094;&#1077;&#1083;&#1077;&#1074;&#1086;&#1081; &#1089;&#1095;&#1077;&#1090; &#1087;&#1086;&#1083;&#1091;&#1095;&#1072;&#1090;&#1077;&#1083;&#1103; &#1076;&#1086;&#1085;&#1072;&#1090;&#1072;</text><polygon fill="#181818" points="591.5,977.8047,581.5,981.8047,591.5,985.8047,587.5,981.8047" style="stroke:#181818;stroke-width:1.0;"/><line style="stroke:#181818;stroke-width:1.0;" x1="585.5" x2="1701.5" y1="981.8047" y2="981.8047"/><text fill="#000000" font-family="sans-serif" font-size="13" lengthAdjust="spacing" textLength="215" x="597.5" y="977.0625">&#1059;&#1074;&#1077;&#1076;&#1086;&#1084;&#1083;&#1077;&#1085;&#1080;&#1077; &#1086; &#1076;&#1086;&#1089;&#1090;&#1072;&#1074;&#1082;&#1077; &#1089;&#1088;&#1077;&#1076;&#1089;&#1090;&#1074;</text><polygon fill="#181818" points="1001.5,1007.1152,991.5,1011.1152,1001.5,1015.1152,997.5,1011.1152" style="stroke:#181818;stroke-width:1.0;"/><line style="stroke:#181818;stroke-width:1.0;" x1="995.5" x2="1701.5" y1="1011.1152" y2="1011.1152"/><text fill="#000000" font-family="sans-serif" font-size="13" lengthAdjust="spacing" textLength="688" x="1007.5" y="1006.373">&#1055;&#1088;&#1080; &#1078;&#1077;&#1083;&#1072;&#1085;&#1080;&#1080; &#1087;&#1086;&#1083;&#1100;&#1079;&#1086;&#1074;&#1072;&#1090;&#1077;&#1083;&#1103; &#1089;&#1086;&#1079;&#1076;&#1072;&#1085;&#1080;&#1077; &#1085;&#1086;&#1074;&#1086;&#1081; &#1079;&#1072;&#1087;&#1080;&#1089;&#1080; &#1086;&#1073; &#1091;&#1074;&#1077;&#1076;&#1086;&#1084;&#1083;&#1077;&#1085;&#1080;&#1080; &#1095;&#1077;&#1088;&#1077;&#1079; &#1084;&#1077;&#1089;&#1103;&#1094;, &#1091;&#1076;&#1072;&#1083;&#1077;&#1085;&#1080;&#1077; &#1089;&#1090;&#1072;&#1088;&#1086;&#1081; &#1079;&#1072;&#1087;&#1080;&#1089;&#1080;</text><line style="stroke:#181818;stroke-width:1.0;" x1="1702.5" x2="1744.5" y1="1040.4258" y2="1040.4258"/><line style="stroke:#181818;stroke-width:1.0;" x1="1744.5" x2="1744.5" y1="1040.4258" y2="1053.4258"/><line style="stroke:#181818;stroke-width:1.0;" x1="1703.5" x2="1744.5" y1="1053.4258" y2="1053.4258"/><polygon fill="#181818" points="1713.5,1049.4258,1703.5,1053.4258,1713.5,1057.4258,1709.5,1053.4258" style="stroke:#181818;stroke-width:1.0;"/><text fill="#000000" font-family="sans-serif" font-size="13" lengthAdjust="spacing" textLength="164" x="1709.5" y="1035.6836">&#1057;&#1072;&#1084;&#1086;&#1086;&#1095;&#1080;&#1089;&#1090;&#1082;&#1072; &#1080; &#1091;&#1076;&#1072;&#1083;&#1077;&#1085;&#1080;&#1077;.</text><!--SRC=[bLPDRzDO5DtxLpnbtS2-gf26nI0Miu4DEnIt3bWAJIPs4RDh-WKIg1cnOWEe0lPkcW-N9CvVUFv7S-wzxzb-YLC6fEBa-TvpppttuwNNwiVXVjXh7SQA_pNqbSxoYtlvG4_o4vqgdUgbpdIYR_H4Bt6KDCIo5QdUytuGUQtzkDkNCwM_mdQUVz0pF4SwWVs4lgl2voZgUxsDg8yFsrtbT-CIE_Hhp5x5lNutxZR809zhB1uU_UFY-Bvtq8fRVYiAsE2F_JXy7QWew7I2VgGwOIJ6C6r51sxGnbEsud1HnyNvizizSBpRSFxxA3WAJAwDPtyzQPHvltdLTr_hxv0M0bLish7dGH_LR3uWdNQL_e5YlALAABt2unXgZl0SI6d647b96EBrG0goQwjm2jT4d5CzKoWfAbijxDYKDCtFyEqdbolBZtSKFcVoEN-lRvM-ncFE02Zi6A1BfKVgKH0hbW62CuEzPhEWy2-tpHAu2yHWbAq1AvdenEOI-hlgVXIZ71QRJlGd09oH4t2J_09GbqfdeCYC9o09gLYeiPu3TKeX4MoY5uf3lAKmw4ZcDu98buer6U1_W5N3wyz8TSgq042gaCyApnJr4t_EhA3Vy4AVlAaxuNzL2YO8x8E_6wAy0a72fteixQ7aaH0EoIaucqaFEMaBjp1WF6vJFbuKaXIbsQBVxq8XFT_d9kE6pCzXCgP-s71q4ggwVjhQ2M24XS5jdf6o1j9Ipj-Js7FYN6qPdqN7118js6Ky9SU4YxQJnbq1WUOcmRkvROexcb9WzveMjXYfYkkQb3HL6JEZIFafOYvDr5HcwfsiGufYIDFIgMETw9_STYEQdloylgblCQhKWjUYtG1U2wixdTzGQSfIB0bOkj6C95al97_9jca9VVp_i3NCyc7HTLpmByY5p4XyAKgTTglQo-DoHzwCyLq4cahDg0fEMrqn8sgOWHqtXCggiVDJetlK-ONgPU5c01moyTGxxCQ1weSlNiOUmermFiCkiKidOtL7o4S6YOzIuF2CuDE9udLEUisAqU3BIBNj9WqE3nI5CUqdHBVbxxAhUAmhpisTL3ODMF7DOaQpA5NjWZ0pLzv1d6a9MentEoutWvZL6Fd-tIcjXN4gzhjUk7Vh5h5fO1PeLbtAzLDQA-dM1U1YJ1H-2MoJq8iw9KjNDvFRHDyugMpqx9rgEOKekfH6VefbTi8_BpOxGYPdRHVRrtPEJ-KgvJo7crVudkcdRyILtowgUxVSaqPFkhfbaV3XoEGHskq8QQVCHsguTLqCdTyfxhLxo-C2nvGs17N1jSAQtYIOEdEwu9y7m_nYXwm9jqn4Cc1LNNJ3tomcsQ2aTieUzcPQWxlt7m00]--></g></svg>