<?xml version="1.0" encoding="us-ascii" standalone="no"?><svg xmlns="http://www.w3.org/2000/svg" xmlns:xlink="http://www.w3.org/1999/xlink" contentStyleType="text/css" height="415px" preserveAspectRatio="none" style="width:1062px;height:415px;background:#FFFFFF;" version="1.1" viewBox="0 0 1062 415" width="1062px" zoomAndPan="magnify"><defs/><g><line style="stroke:#181818;stroke-width:0.5;stroke-dasharray:5.0,5.0;" x1="80" x2="80" y1="81.4883" y2="334.9727"/><line style="stroke:#181818;stroke-width:0.5;stroke-dasharray:5.0,5.0;" x1="399" x2="399" y1="81.4883" y2="334.9727"/><line style="stroke:#181818;stroke-width:0.5;stroke-dasharray:5.0,5.0;" x1="802.5" x2="802.5" y1="81.4883" y2="334.9727"/><line style="stroke:#181818;stroke-width:0.5;stroke-dasharray:5.0,5.0;" x1="1027" x2="1027" y1="81.4883" y2="334.9727"/><rect fill="#E2E2F0" height="30.4883" rx="2.5" ry="2.5" style="stroke:#181818;stroke-width:0.5;" width="151" x="5" y="50"/><text fill="#000000" font-family="sans-serif" font-size="14" lengthAdjust="spacing" textLength="137" x="12" y="70.5352">&#1055;&#1091;&#1073;&#1083;&#1080;&#1095;&#1085;&#1099;&#1077; &#1088;&#1077;&#1089;&#1091;&#1088;&#1089;&#1099;</text><rect fill="#E2E2F0" height="30.4883" rx="2.5" ry="2.5" style="stroke:#181818;stroke-width:0.5;" width="151" x="5" y="333.9727"/><text fill="#000000" font-family="sans-serif" font-size="14" lengthAdjust="spacing" textLength="137" x="12" y="354.5078">&#1055;&#1091;&#1073;&#1083;&#1080;&#1095;&#1085;&#1099;&#1077; &#1088;&#1077;&#1089;&#1091;&#1088;&#1089;&#1099;</text><text fill="#000000" font-family="sans-serif" font-size="14" lengthAdjust="spacing" textLength="67" x="363" y="78.5352">&#1048;&#1085;&#1086;&#1072;&#1075;&#1077;&#1085;&#1090;</text><ellipse cx="399.5" cy="13.5" fill="#E2E2F0" rx="8" ry="8" style="stroke:#181818;stroke-width:0.5;"/><path d="M399.5,21.5 L399.5,48.5 M386.5,29.5 L412.5,29.5 M399.5,48.5 L386.5,63.5 M399.5,48.5 L412.5,63.5 " fill="none" style="stroke:#181818;stroke-width:0.5;"/><text fill="#000000" font-family="sans-serif" font-size="14" lengthAdjust="spacing" textLength="67" x="363" y="347.5078">&#1048;&#1085;&#1086;&#1072;&#1075;&#1077;&#1085;&#1090;</text><ellipse cx="399.5" cy="358.9609" fill="#E2E2F0" rx="8" ry="8" style="stroke:#181818;stroke-width:0.5;"/><path d="M399.5,366.9609 L399.5,393.9609 M386.5,374.9609 L412.5,374.9609 M399.5,393.9609 L386.5,408.9609 M399.5,393.9609 L412.5,408.9609 " fill="none" style="stroke:#181818;stroke-width:0.5;"/><rect fill="#E2E2F0" height="30.4883" rx="2.5" ry="2.5" style="stroke:#181818;stroke-width:0.5;" width="100" x="752.5" y="50"/><text fill="#000000" font-family="sans-serif" font-size="14" lengthAdjust="spacing" textLength="86" x="759.5" y="70.5352">Get food bot</text><rect fill="#E2E2F0" height="30.4883" rx="2.5" ry="2.5" style="stroke:#181818;stroke-width:0.5;" width="100" x="752.5" y="333.9727"/><text fill="#000000" font-family="sans-serif" font-size="14" lengthAdjust="spacing" textLength="86" x="759.5" y="354.5078">Get food bot</text><text fill="#000000" font-family="sans-serif" font-size="14" lengthAdjust="spacing" textLength="59" x="995" y="78.5352">Food list</text><path d="M1009.5,29 C1009.5,19 1027.5,19 1027.5,19 C1027.5,19 1045.5,19 1045.5,29 L1045.5,55 C1045.5,65 1027.5,65 1027.5,65 C1027.5,65 1009.5,65 1009.5,55 L1009.5,29 " fill="#E2E2F0" style="stroke:#181818;stroke-width:1.5;"/><path d="M1009.5,29 C1009.5,39 1027.5,39 1027.5,39 C1027.5,39 1045.5,39 1045.5,29 " fill="none" style="stroke:#181818;stroke-width:1.5;"/><text fill="#000000" font-family="sans-serif" font-size="14" lengthAdjust="spacing" textLength="59" x="995" y="347.5078">Food list</text><path d="M1009.5,360.4609 C1009.5,350.4609 1027.5,350.4609 1027.5,350.4609 C1027.5,350.4609 1045.5,350.4609 1045.5,360.4609 L1045.5,386.4609 C1045.5,396.4609 1027.5,396.4609 1027.5,396.4609 C1027.5,396.4609 1009.5,396.4609 1009.5,386.4609 L1009.5,360.4609 " fill="#E2E2F0" style="stroke:#181818;stroke-width:1.5;"/><path d="M1009.5,360.4609 C1009.5,370.4609 1027.5,370.4609 1027.5,370.4609 C1027.5,370.4609 1045.5,370.4609 1045.5,360.4609 " fill="none" style="stroke:#181818;stroke-width:1.5;"/><line style="stroke:#181818;stroke-width:1.0;stroke-dasharray:2.0,2.0;" x1="399.5" x2="441.5" y1="112.7988" y2="112.7988"/><line style="stroke:#181818;stroke-width:1.0;stroke-dasharray:2.0,2.0;" x1="441.5" x2="441.5" y1="112.7988" y2="125.7988"/><line style="stroke:#181818;stroke-width:1.0;stroke-dasharray:2.0,2.0;" x1="400.5" x2="441.5" y1="125.7988" y2="125.7988"/><polygon fill="#181818" points="410.5,121.7988,400.5,125.7988,410.5,129.7988,406.5,125.7988" style="stroke:#181818;stroke-width:1.0;"/><text fill="#000000" font-family="sans-serif" font-size="13" lengthAdjust="spacing" textLength="389" x="406.5" y="108.0566">&#1055;&#1086;&#1083;&#1100;&#1079;&#1086;&#1074;&#1072;&#1090;&#1077;&#1083;&#1100; &#1093;&#1086;&#1095;&#1077;&#1090; &#1087;&#1086;&#1083;&#1091;&#1095;&#1080;&#1090;&#1100; &#1085;&#1086;&#1074;&#1099;&#1081; &#1080;&#1076;&#1077;&#1085;&#1090;&#1080;&#1092;&#1080;&#1082;&#1072;&#1090;&#1086;&#1088; &#1076;&#1086;&#1085;&#1072;&#1090;&#1072;</text><polygon fill="#181818" points="790.5,151.1094,800.5,155.1094,790.5,159.1094,794.5,155.1094" style="stroke:#181818;stroke-width:1.0;"/><line style="stroke:#181818;stroke-width:1.0;" x1="399.5" x2="796.5" y1="155.1094" y2="155.1094"/><text fill="#000000" font-family="sans-serif" font-size="13" lengthAdjust="spacing" textLength="302" x="406.5" y="150.3672">&#1057;&#1086;&#1079;&#1076;&#1072;&#1085;&#1080;&#1077; &#1085;&#1086;&#1074;&#1086;&#1081; &#1079;&#1072;&#1087;&#1080;&#1089;&#1080; &#1076;&#1083;&#1103; &#1087;&#1086;&#1083;&#1091;&#1095;&#1077;&#1085;&#1080;&#1103; &#1076;&#1086;&#1085;&#1072;&#1090;&#1072;</text><polygon fill="#181818" points="410.5,180.4199,400.5,184.4199,410.5,188.4199,406.5,184.4199" style="stroke:#181818;stroke-width:1.0;"/><line style="stroke:#181818;stroke-width:1.0;stroke-dasharray:2.0,2.0;" x1="404.5" x2="801.5" y1="184.4199" y2="184.4199"/><text fill="#000000" font-family="sans-serif" font-size="13" lengthAdjust="spacing" textLength="124" x="416.5" y="179.6777">&#1042;&#1074;&#1077;&#1076;&#1080;&#1090;&#1077; &#1072;&#1076;&#1088;&#1077;&#1089; XMR</text><polygon fill="#181818" points="790.5,209.7305,800.5,213.7305,790.5,217.7305,794.5,213.7305" style="stroke:#181818;stroke-width:1.0;"/><line style="stroke:#181818;stroke-width:1.0;" x1="399.5" x2="796.5" y1="213.7305" y2="213.7305"/><text fill="#000000" font-family="sans-serif" font-size="13" lengthAdjust="spacing" textLength="224" x="406.5" y="208.9883">&#1040;&#1076;&#1088;&#1077;&#1089; XMR &#1089;&#1086;&#1079;&#1076;&#1072;&#1085;&#1085;&#1099;&#1081; &#1080;&#1085;&#1086;&#1072;&#1075;&#1077;&#1085;&#1090;&#1086;&#1084;</text><polygon fill="#181818" points="813.5,239.041,803.5,243.041,813.5,247.041,809.5,243.041" style="stroke:#181818;stroke-width:1.0;"/><polygon fill="#181818" points="1015.5,239.041,1025.5,243.041,1015.5,247.041,1019.5,243.041" style="stroke:#181818;stroke-width:1.0;"/><line style="stroke:#181818;stroke-width:1.0;" x1="807.5" x2="1021.5" y1="243.041" y2="243.041"/><text fill="#000000" font-family="sans-serif" font-size="13" lengthAdjust="spacing" textLength="201" x="819.5" y="238.2988">&#1057;&#1086;&#1079;&#1076;&#1072;&#1085;&#1080;&#1077; &#1072;&#1089;&#1089;&#1086;&#1094;&#1080;&#1072;&#1094;&#1080;&#1080; xmr &#1080; id</text><polygon fill="#181818" points="410.5,268.3516,400.5,272.3516,410.5,276.3516,406.5,272.3516" style="stroke:#181818;stroke-width:1.0;"/><line style="stroke:#181818;stroke-width:1.0;stroke-dasharray:2.0,2.0;" x1="404.5" x2="801.5" y1="272.3516" y2="272.3516"/><text fill="#000000" font-family="sans-serif" font-size="13" lengthAdjust="spacing" textLength="322" x="416.5" y="267.6094">&#1059;&#1085;&#1080;&#1082;&#1072;&#1083;&#1100;&#1085;&#1099;&#1081; &#1080;&#1076;&#1077;&#1085;&#1090;&#1080;&#1092;&#1080;&#1082;&#1072;&#1090;&#1086;&#1088; &#1079;&#1072;&#1087;&#1088;&#1086;&#1089;&#1072; &#1076;&#1083;&#1103; &#1076;&#1086;&#1085;&#1072;&#1090;&#1086;&#1074;</text><polygon fill="#181818" points="91.5,312.9727,81.5,316.9727,91.5,320.9727,87.5,316.9727" style="stroke:#181818;stroke-width:1.0;"/><line style="stroke:#181818;stroke-width:1.0;" x1="85.5" x2="398.5" y1="316.9727" y2="316.9727"/><text fill="#000000" font-family="sans-serif" font-size="13" lengthAdjust="spacing" textLength="295" x="97.5" y="296.9199">&#1056;&#1072;&#1079;&#1084;&#1077;&#1097;&#1077;&#1085;&#1080;&#1077; &#1082;&#1085;&#1086;&#1087;&#1082;&#1080; "&#1055;&#1086;&#1082;&#1086;&#1088;&#1084;&#1080;&#1090;&#1100; &#1082;&#1086;&#1090;&#1080;&#1082;&#1086;&#1074;" &#1080;&#1083;&#1080;</text><text fill="#000000" font-family="sans-serif" font-size="13" lengthAdjust="spacing" textLength="271" x="97.5" y="312.2305">&#1091;&#1085;&#1080;&#1082;&#1072;&#1083;&#1100;&#1085;&#1086;&#1075;&#1086; &#1080;&#1076;&#1077;&#1085;&#1090;&#1080;&#1092;&#1080;&#1082;&#1072;&#1090;&#1086;&#1088;&#1072; &#1074; &#1089;&#1086;&#1094;.&#1089;&#1077;&#1090;&#1103;&#1093;</text><!--SRC=[XLBDJi904BxtAIRSwmCOmr5FNZnvC34j1TD4QTFMn2CKqHXCC9wyeV45Aj2m0YslCFj6VhkB_6cqIRkTdPdl- -OdTAB4h_cXqqn8FnKUo0v_y8o5lET2zZWdsU9SjcL7jl3jLKoW4rDu7jLZowabGMJkY5-uu98p7d6Ev9HMiTTnP8K_o8xg2JM2m2CtIDQu5mtNyfp4SPsuhiCELSYb7viOH3Gyrx80IRPTLT3xn0FmpkGZJt0EEPCf5C0csUKIbUGGmmiTqu4fP0gV5Zj4ZP_4WiT6CtotiAOQevGjWgD4f38pGrfL4i7v1iS4xWnkWKOPFBp0c-1s0Qms2uKma_rD_bnbgAjTx0FRNe8_0oc7NwXI26XZCmSwFJxPbl6qwI8mhbKLtyLjZGN_SmkvOAkgNlvMIePP0qdUmSpqLz3DLGGiyhqTgUyw2HtJ4oZ-RQZk3IINOCXMtLct0asqz7A1OpdULwHCU8ug7qppbCQfBck1KwZ5nVzK4I1iELzbffeRa1Mb2NjzriI6Rmc6TyJb7vALoY6PVkpXm3R9lkn-0G00]--></g></svg>