<?xml version="1.0" encoding="us-ascii" standalone="no"?><svg xmlns="http://www.w3.org/2000/svg" xmlns:xlink="http://www.w3.org/1999/xlink" contentStyleType="text/css" height="351px" preserveAspectRatio="none" style="width:1003px;height:351px;background:#FFFFFF;" version="1.1" viewBox="0 0 1003 351" width="1003px" zoomAndPan="magnify"><defs/><g><line style="stroke:#181818;stroke-width:0.5;stroke-dasharray:5.0,5.0;" x1="23" x2="23" y1="81.4883" y2="270.6621"/><line style="stroke:#181818;stroke-width:0.5;stroke-dasharray:5.0,5.0;" x1="332.5" x2="332.5" y1="81.4883" y2="270.6621"/><line style="stroke:#181818;stroke-width:0.5;stroke-dasharray:5.0,5.0;" x1="671.5" x2="671.5" y1="81.4883" y2="270.6621"/><line style="stroke:#181818;stroke-width:0.5;stroke-dasharray:5.0,5.0;" x1="766.5" x2="766.5" y1="81.4883" y2="270.6621"/><text fill="#000000" font-family="sans-serif" font-size="14" lengthAdjust="spacing" textLength="31" x="5" y="78.5352">User</text><ellipse cx="23.5" cy="13.5" fill="#E2E2F0" rx="8" ry="8" style="stroke:#181818;stroke-width:0.5;"/><path d="M23.5,21.5 L23.5,48.5 M10.5,29.5 L36.5,29.5 M23.5,48.5 L10.5,63.5 M23.5,48.5 L36.5,63.5 " fill="none" style="stroke:#181818;stroke-width:0.5;"/><text fill="#000000" font-family="sans-serif" font-size="14" lengthAdjust="spacing" textLength="31" x="5" y="283.1973">User</text><ellipse cx="23.5" cy="294.6504" fill="#E2E2F0" rx="8" ry="8" style="stroke:#181818;stroke-width:0.5;"/><path d="M23.5,302.6504 L23.5,329.6504 M10.5,310.6504 L36.5,310.6504 M23.5,329.6504 L10.5,344.6504 M23.5,329.6504 L36.5,344.6504 " fill="none" style="stroke:#181818;stroke-width:0.5;"/><rect fill="#E2E2F0" height="30.4883" rx="2.5" ry="2.5" style="stroke:#181818;stroke-width:0.5;" width="68" x="298.5" y="50"/><text fill="#000000" font-family="sans-serif" font-size="14" lengthAdjust="spacing" textLength="54" x="305.5" y="70.5352">Info bot</text><rect fill="#E2E2F0" height="30.4883" rx="2.5" ry="2.5" style="stroke:#181818;stroke-width:0.5;" width="68" x="298.5" y="269.6621"/><text fill="#000000" font-family="sans-serif" font-size="14" lengthAdjust="spacing" textLength="54" x="305.5" y="290.1973">Info bot</text><text fill="#000000" font-family="sans-serif" font-size="14" lengthAdjust="spacing" textLength="100" x="618.5" y="78.5352">Food schedule</text><path d="M653.5,29 C653.5,19 671.5,19 671.5,19 C671.5,19 689.5,19 689.5,29 L689.5,55 C689.5,65 671.5,65 671.5,65 C671.5,65 653.5,65 653.5,55 L653.5,29 " fill="#E2E2F0" style="stroke:#181818;stroke-width:1.5;"/><path d="M653.5,29 C653.5,39 671.5,39 671.5,39 C671.5,39 689.5,39 689.5,29 " fill="none" style="stroke:#181818;stroke-width:1.5;"/><text fill="#000000" font-family="sans-serif" font-size="14" lengthAdjust="spacing" textLength="100" x="618.5" y="283.1973">Food schedule</text><path d="M653.5,296.1504 C653.5,286.1504 671.5,286.1504 671.5,286.1504 C671.5,286.1504 689.5,286.1504 689.5,296.1504 L689.5,322.1504 C689.5,332.1504 671.5,332.1504 671.5,332.1504 C671.5,332.1504 653.5,332.1504 653.5,322.1504 L653.5,296.1504 " fill="#E2E2F0" style="stroke:#181818;stroke-width:1.5;"/><path d="M653.5,296.1504 C653.5,306.1504 671.5,306.1504 671.5,306.1504 C671.5,306.1504 689.5,306.1504 689.5,296.1504 " fill="none" style="stroke:#181818;stroke-width:1.5;"/><rect fill="#E2E2F0" height="30.4883" rx="2.5" ry="2.5" style="stroke:#181818;stroke-width:0.5;" width="64" x="734.5" y="50"/><text fill="#000000" font-family="sans-serif" font-size="14" lengthAdjust="spacing" textLength="50" x="741.5" y="70.5352">Pay bot</text><rect fill="#E2E2F0" height="30.4883" rx="2.5" ry="2.5" style="stroke:#181818;stroke-width:0.5;" width="64" x="734.5" y="269.6621"/><text fill="#000000" font-family="sans-serif" font-size="14" lengthAdjust="spacing" textLength="50" x="741.5" y="290.1973">Pay bot</text><polygon fill="#181818" points="659.5,134.7646,669.5,138.7646,659.5,142.7646,663.5,138.7646" style="stroke:#181818;stroke-width:1.0;"/><line style="stroke:#181818;stroke-width:1.0;" x1="332.5" x2="665.5" y1="138.7646" y2="138.7646"/><text fill="#000000" font-family="sans-serif" font-size="13" lengthAdjust="spacing" textLength="315" x="339.5" y="118.7119">&#1055;&#1086; &#1088;&#1072;&#1089;&#1087;&#1080;&#1089;&#1072;&#1085;&#1080;&#1102; &#1087;&#1086;&#1083;&#1091;&#1095;&#1080;&#1090;&#1100; &#1079;&#1072;&#1087;&#1080;&#1089;&#1080; &#1087;&#1086;&#1083;&#1100;&#1079;&#1086;&#1074;&#1072;&#1090;&#1077;&#1083;&#1077;&#1081;,</text><text fill="#000000" font-family="sans-serif" font-size="13" lengthAdjust="spacing" textLength="267" x="339.5" y="134.0225">&#1082;&#1086;&#1090;&#1086;&#1088;&#1099;&#1077; &#1079;&#1072;&#1093;&#1086;&#1090;&#1077;&#1083;&#1080; &#1087;&#1086;&#1083;&#1091;&#1095;&#1072;&#1090;&#1100; &#1085;&#1072;&#1087;&#1086;&#1084;&#1080;&#1085;&#1072;&#1085;&#1080;&#1103;</text><path d="M676,96.4883 L676,151.4883 L996,151.4883 L996,106.4883 L986,96.4883 L676,96.4883 " fill="#FEFFDD" style="stroke:#181818;stroke-width:0.5;"/><path d="M986,96.4883 L986,106.4883 L996,106.4883 L986,96.4883 " fill="#FEFFDD" style="stroke:#181818;stroke-width:0.5;"/><text fill="#000000" font-family="sans-serif" font-size="13" lengthAdjust="spacing" textLength="299" x="682" y="114.0566">&#1058;&#1091;&#1090; &#1084;&#1086;&#1078;&#1085;&#1086; &#1093;&#1088;&#1072;&#1085;&#1080;&#1090;&#1100; &#1072;&#1089;&#1089;&#1086;&#1094;&#1080;&#1072;&#1094;&#1080;&#1102; &#1087;&#1086;&#1083;&#1100;&#1079;&#1086;&#1074;&#1072;&#1090;&#1077;&#1083;&#1103;</text><text fill="#000000" font-family="sans-serif" font-size="13" lengthAdjust="spacing" textLength="232" x="682" y="129.3672">&#1080; &#1085;&#1086;&#1084;&#1077;&#1088;&#1072; &#1085;&#1077;&#1076;&#1077;&#1083;&#1080; &#1074; &#1082;&#1086;&#1090;&#1086;&#1088;&#1086;&#1081; &#1076;&#1086;&#1083;&#1078;&#1085;&#1086;</text><text fill="#000000" font-family="sans-serif" font-size="13" lengthAdjust="spacing" textLength="220" x="682" y="144.6777">&#1087;&#1088;&#1086;&#1080;&#1079;&#1086;&#1081;&#1090;&#1080; &#1089;&#1083;&#1077;&#1076;&#1091;&#1102;&#1097;&#1077;&#1077; &#1082;&#1086;&#1088;&#1084;&#1083;&#1077;&#1085;&#1080;&#1077;</text><polygon fill="#181818" points="34.5,190.041,24.5,194.041,34.5,198.041,30.5,194.041" style="stroke:#181818;stroke-width:1.0;"/><line style="stroke:#181818;stroke-width:1.0;" x1="28.5" x2="331.5" y1="194.041" y2="194.041"/><text fill="#000000" font-family="sans-serif" font-size="13" lengthAdjust="spacing" textLength="225" x="40.5" y="173.9883">&#1054;&#1090;&#1087;&#1088;&#1072;&#1074;&#1080;&#1090;&#1100; &#1091;&#1074;&#1077;&#1076;&#1086;&#1084;&#1083;&#1077;&#1085;&#1080;&#1077; &#1089; &#1082;&#1085;&#1086;&#1087;&#1082;&#1086;&#1081;</text><text fill="#000000" font-family="sans-serif" font-size="13" lengthAdjust="spacing" textLength="191" x="40.5" y="189.2988">&#1085;&#1072; &#1089;&#1086;&#1079;&#1076;&#1072;&#1085;&#1080;&#1077; &#1087;&#1083;&#1072;&#1090;&#1077;&#1078;&#1085;&#1086;&#1075;&#1086; &#1073;&#1086;&#1090;&#1072;</text><polygon fill="#181818" points="320.5,219.3516,330.5,223.3516,320.5,227.3516,324.5,223.3516" style="stroke:#181818;stroke-width:1.0;"/><line style="stroke:#181818;stroke-width:1.0;" x1="23.5" x2="326.5" y1="223.3516" y2="223.3516"/><text fill="#000000" font-family="sans-serif" font-size="13" lengthAdjust="spacing" textLength="285" x="30.5" y="218.6094">&#1055;&#1086;&#1083;&#1100;&#1079;&#1086;&#1074;&#1072;&#1090;&#1077;&#1083;&#1100; &#1085;&#1072;&#1078;&#1080;&#1084;&#1072;&#1077;&#1090; &#1085;&#1072; &#1082;&#1085;&#1086;&#1087;&#1082;&#1091; &#1086;&#1090;&#1087;&#1088;&#1072;&#1074;&#1082;&#1080;</text><polygon fill="#181818" points="754.5,248.6621,764.5,252.6621,754.5,256.6621,758.5,252.6621" style="stroke:#181818;stroke-width:1.0;"/><line style="stroke:#181818;stroke-width:1.0;" x1="332.5" x2="760.5" y1="252.6621" y2="252.6621"/><text fill="#000000" font-family="sans-serif" font-size="13" lengthAdjust="spacing" textLength="226" x="339.5" y="247.9199">&#1055;&#1077;&#1088;&#1077;&#1093;&#1086;&#1076; &#1074; &#1087;&#1088;&#1086;&#1094;&#1077;&#1089;&#1089; &#1087;&#1086;&#1082;&#1091;&#1087;&#1082;&#1080; &#1082;&#1086;&#1088;&#1084;&#1072;</text><!--SRC=[RL9DJi905DxFAIQizG8kN9guS-FEJKkBa9YMqB9mXn0qHe8tqCGJL6Im_4slyEP6VkyD5JIGqCwyd-_dlGRDFErf_xlEuleOPBgVzLGtwEMTPgSR9BcFDowJLgh3D6_yrdLQeOg2F0Y3B9QIYpIDTDPinr7_BcxigbfHU0JjAhZ_2zODSwM0g4_FkULCqpjPxGPKk0UggCIpe2tUKushfRKRkITSXswYwHivNrFMsGc2bcPe7vAXDVxBavk4LcGHi6xWNiX8enjBY6lAG-Z2Gsy5sjA6IZcpX5ULf7ciUvtRTgxe0-L3ZG9B2wGXUioofL8Wu03Ah7i4HC7FlOT_Ae7C8hR2PnY5BuRcjRoPtZj0qL8Z1HnFhAYIQ2cWIrIL6iJiVGwDK_UCa_480n1m0YB9g3Y9D5kg5u0l00ju0q8bLcOxAsw4en7EWtQGC2YhhXYSbXWqPiNa5bhcVXXCNQ7BUnN5z8LnqQSuAXHOcHmQ_FQFp6Uta0NGDdWR7ZmpxUdTI0jSBNn5PUqAdvW0ys0DhvtcCb6P6lPYU4z-Cu0HB-L-MiKF]--></g></svg>