<?xml version="1.0" encoding="us-ascii" standalone="no"?><svg xmlns="http://www.w3.org/2000/svg" xmlns:xlink="http://www.w3.org/1999/xlink" contentStyleType="text/css" height="517px" preserveAspectRatio="none" style="width:931px;height:517px;background:#FFFFFF;" version="1.1" viewBox="0 0 931 517" width="931px" zoomAndPan="magnify"><defs/><g><line style="stroke:#181818;stroke-width:0.5;stroke-dasharray:5.0,5.0;" x1="27" x2="27" y1="81.4883" y2="436.2148"/><line style="stroke:#181818;stroke-width:0.5;stroke-dasharray:5.0,5.0;" x1="418.5" x2="418.5" y1="81.4883" y2="436.2148"/><line style="stroke:#181818;stroke-width:0.5;stroke-dasharray:5.0,5.0;" x1="677.5" x2="677.5" y1="81.4883" y2="436.2148"/><text fill="#000000" font-family="sans-serif" font-size="14" lengthAdjust="spacing" textLength="38" x="5" y="78.5352">Seller</text><ellipse cx="27" cy="13.5" fill="#E2E2F0" rx="8" ry="8" style="stroke:#181818;stroke-width:0.5;"/><path d="M27,21.5 L27,48.5 M14,29.5 L40,29.5 M27,48.5 L14,63.5 M27,48.5 L40,63.5 " fill="none" style="stroke:#181818;stroke-width:0.5;"/><text fill="#000000" font-family="sans-serif" font-size="14" lengthAdjust="spacing" textLength="38" x="5" y="448.75">Seller</text><ellipse cx="27" cy="460.2031" fill="#E2E2F0" rx="8" ry="8" style="stroke:#181818;stroke-width:0.5;"/><path d="M27,468.2031 L27,495.2031 M14,476.2031 L40,476.2031 M27,495.2031 L14,510.2031 M27,495.2031 L40,510.2031 " fill="none" style="stroke:#181818;stroke-width:0.5;"/><rect fill="#E2E2F0" height="30.4883" rx="2.5" ry="2.5" style="stroke:#181818;stroke-width:0.5;" width="101" x="368.5" y="50"/><text fill="#000000" font-family="sans-serif" font-size="14" lengthAdjust="spacing" textLength="87" x="375.5" y="70.5352">Sell food bot</text><rect fill="#E2E2F0" height="30.4883" rx="2.5" ry="2.5" style="stroke:#181818;stroke-width:0.5;" width="101" x="368.5" y="435.2148"/><text fill="#000000" font-family="sans-serif" font-size="14" lengthAdjust="spacing" textLength="87" x="375.5" y="455.75">Sell food bot</text><text fill="#000000" font-family="sans-serif" font-size="14" lengthAdjust="spacing" textLength="113" x="618.5" y="78.5352">Active sellers list</text><path d="M660,29 C660,19 678,19 678,19 C678,19 696,19 696,29 L696,55 C696,65 678,65 678,65 C678,65 660,65 660,55 L660,29 " fill="#E2E2F0" style="stroke:#181818;stroke-width:1.5;"/><path d="M660,29 C660,39 678,39 678,39 C678,39 696,39 696,29 " fill="none" style="stroke:#181818;stroke-width:1.5;"/><text fill="#000000" font-family="sans-serif" font-size="14" lengthAdjust="spacing" textLength="113" x="618.5" y="448.75">Active sellers list</text><path d="M660,461.7031 C660,451.7031 678,451.7031 678,451.7031 C678,451.7031 696,451.7031 696,461.7031 L696,487.7031 C696,497.7031 678,497.7031 678,497.7031 C678,497.7031 660,497.7031 660,487.7031 L660,461.7031 " fill="#E2E2F0" style="stroke:#181818;stroke-width:1.5;"/><path d="M660,461.7031 C660,471.7031 678,471.7031 678,471.7031 C678,471.7031 696,471.7031 696,461.7031 " fill="none" style="stroke:#181818;stroke-width:1.5;"/><line style="stroke:#181818;stroke-width:1.0;stroke-dasharray:2.0,2.0;" x1="27" x2="69" y1="112.7988" y2="112.7988"/><line style="stroke:#181818;stroke-width:1.0;stroke-dasharray:2.0,2.0;" x1="69" x2="69" y1="112.7988" y2="125.7988"/><line style="stroke:#181818;stroke-width:1.0;stroke-dasharray:2.0,2.0;" x1="28" x2="69" y1="125.7988" y2="125.7988"/><polygon fill="#181818" points="38,121.7988,28,125.7988,38,129.7988,34,125.7988" style="stroke:#181818;stroke-width:1.0;"/><text fill="#000000" font-family="sans-serif" font-size="13" lengthAdjust="spacing" textLength="378" x="34" y="108.0566">&#1055;&#1086;&#1083;&#1100;&#1079;&#1086;&#1074;&#1072;&#1090;&#1077;&#1083;&#1100; &#1093;&#1086;&#1095;&#1077;&#1090; &#1089;&#1086;&#1079;&#1076;&#1072;&#1090;&#1100; &#1079;&#1072;&#1103;&#1074;&#1082;&#1091; &#1085;&#1072; &#1088;&#1072;&#1079;&#1084;&#1077;&#1097;&#1077;&#1085;&#1080;&#1077; &#1050;&#1054;&#1056;&#1052;&#1040;</text><polygon fill="#181818" points="407,151.1094,417,155.1094,407,159.1094,411,155.1094" style="stroke:#181818;stroke-width:1.0;"/><line style="stroke:#181818;stroke-width:1.0;" x1="27" x2="413" y1="155.1094" y2="155.1094"/><text fill="#000000" font-family="sans-serif" font-size="13" lengthAdjust="spacing" textLength="151" x="34" y="150.3672">&#1057;&#1086;&#1079;&#1076;&#1072;&#1085;&#1080;&#1077; &#1085;&#1086;&#1074;&#1086;&#1081; &#1079;&#1072;&#1103;&#1074;&#1082;&#1080;</text><polygon fill="#181818" points="38,180.4199,28,184.4199,38,188.4199,34,184.4199" style="stroke:#181818;stroke-width:1.0;"/><line style="stroke:#181818;stroke-width:1.0;stroke-dasharray:2.0,2.0;" x1="32" x2="418" y1="184.4199" y2="184.4199"/><text fill="#000000" font-family="sans-serif" font-size="13" lengthAdjust="spacing" textLength="124" x="44" y="179.6777">&#1042;&#1074;&#1077;&#1076;&#1080;&#1090;&#1077; &#1072;&#1076;&#1088;&#1077;&#1089; XMR</text><polygon fill="#181818" points="407,209.7305,417,213.7305,407,217.7305,411,213.7305" style="stroke:#181818;stroke-width:1.0;"/><line style="stroke:#181818;stroke-width:1.0;" x1="27" x2="413" y1="213.7305" y2="213.7305"/><text fill="#000000" font-family="sans-serif" font-size="13" lengthAdjust="spacing" textLength="138" x="34" y="208.9883">&#1040;&#1076;&#1088;&#1077;&#1089; XMR &#1087;&#1088;&#1086;&#1076;&#1072;&#1074;&#1094;&#1072;</text><polygon fill="#181818" points="38,239.041,28,243.041,38,247.041,34,243.041" style="stroke:#181818;stroke-width:1.0;"/><line style="stroke:#181818;stroke-width:1.0;stroke-dasharray:2.0,2.0;" x1="32" x2="418" y1="243.041" y2="243.041"/><text fill="#000000" font-family="sans-serif" font-size="13" lengthAdjust="spacing" textLength="177" x="44" y="238.2988">&#1042;&#1074;&#1077;&#1076;&#1080;&#1090;&#1077; &#1076;&#1086;&#1089;&#1090;&#1091;&#1087;&#1085;&#1099;&#1081; amount</text><polygon fill="#181818" points="407,268.3516,417,272.3516,407,276.3516,411,272.3516" style="stroke:#181818;stroke-width:1.0;"/><line style="stroke:#181818;stroke-width:1.0;" x1="27" x2="413" y1="272.3516" y2="272.3516"/><text fill="#000000" font-family="sans-serif" font-size="13" lengthAdjust="spacing" textLength="174" x="34" y="267.6094">&#1044;&#1086;&#1089;&#1090;&#1091;&#1087;&#1085;&#1099;&#1081; &#1088;&#1072;&#1079;&#1084;&#1077;&#1088; &#1072;&#1082;&#1090;&#1080;&#1074;&#1086;&#1074;</text><line style="stroke:#181818;stroke-width:1.0;stroke-dasharray:2.0,2.0;" x1="419" x2="461" y1="321.1279" y2="321.1279"/><line style="stroke:#181818;stroke-width:1.0;stroke-dasharray:2.0,2.0;" x1="461" x2="461" y1="321.1279" y2="334.1279"/><line style="stroke:#181818;stroke-width:1.0;stroke-dasharray:2.0,2.0;" x1="420" x2="461" y1="334.1279" y2="334.1279"/><polygon fill="#181818" points="430,330.1279,420,334.1279,430,338.1279,426,334.1279" style="stroke:#181818;stroke-width:1.0;"/><text fill="#000000" font-family="sans-serif" font-size="13" lengthAdjust="spacing" textLength="120" x="426" y="316.3857">TBD: &#1061;&#1086;&#1083;&#1076; &#1072;&#1082;&#1090;&#1080;&#1074;&#1086;&#1074;</text><path d="M558,285.3516 L558,356.3516 L924,356.3516 L924,295.3516 L914,285.3516 L558,285.3516 " fill="#FEFFDD" style="stroke:#181818;stroke-width:0.5;"/><path d="M914,285.3516 L914,295.3516 L924,295.3516 L914,285.3516 " fill="#FEFFDD" style="stroke:#181818;stroke-width:0.5;"/><text fill="#000000" font-family="sans-serif" font-size="13" lengthAdjust="spacing" textLength="194" x="564" y="302.9199">&#1042; &#1089;&#1083;&#1091;&#1095;&#1072;&#1077; &#1085;&#1072;&#1093;&#1086;&#1078;&#1076;&#1077;&#1085;&#1080;&#1103; &#1089;&#1087;&#1086;&#1089;&#1086;&#1073;&#1072;</text><text fill="#000000" font-family="sans-serif" font-size="13" lengthAdjust="spacing" textLength="302" x="564" y="318.2305">&#1093;&#1086;&#1083;&#1076;&#1072; &#1072;&#1082;&#1090;&#1080;&#1074;&#1072; &#1085;&#1072; &#1084;&#1086;&#1084;&#1077;&#1085;&#1090; &#1087;&#1086;&#1082;&#1072; &#1079;&#1072;&#1103;&#1074;&#1082;&#1072; &#1086;&#1090;&#1082;&#1088;&#1099;&#1090;&#1072; -</text><text fill="#000000" font-family="sans-serif" font-size="13" lengthAdjust="spacing" textLength="296" x="564" y="333.541">&#1085;&#1077;&#1090; &#1085;&#1077;&#1086;&#1073;&#1093;&#1086;&#1076;&#1080;&#1084;&#1086;&#1089;&#1090;&#1080; &#1074; &#1074;&#1077;&#1088;&#1080;&#1092;&#1080;&#1082;&#1072;&#1094;&#1080;&#1080; &#1087;&#1088;&#1086;&#1076;&#1072;&#1074;&#1094;&#1072;</text><text fill="#000000" font-family="sans-serif" font-size="13" lengthAdjust="spacing" textLength="345" x="564" y="348.8516">&#1090;&#1072;&#1082; &#1082;&#1072;&#1082; &#1074;&#1077;&#1088;&#1080;&#1092;&#1080;&#1082;&#1072;&#1094;&#1080;&#1077;&#1081; &#1103;&#1074;&#1083;&#1103;&#1077;&#1090;&#1089;&#1103; &#1093;&#1086;&#1083;&#1076; &#1086;&#1073;&#1098;&#1077;&#1084;&#1072; &#1089;&#1088;&#1077;&#1076;&#1089;&#1090;&#1074;</text><polygon fill="#181818" points="430,378.9043,420,382.9043,430,386.9043,426,382.9043" style="stroke:#181818;stroke-width:1.0;"/><polygon fill="#181818" points="666,378.9043,676,382.9043,666,386.9043,670,382.9043" style="stroke:#181818;stroke-width:1.0;"/><line style="stroke:#181818;stroke-width:1.0;" x1="424" x2="672" y1="382.9043" y2="382.9043"/><text fill="#000000" font-family="sans-serif" font-size="13" lengthAdjust="spacing" textLength="235" x="436" y="378.1621">&#1057;&#1086;&#1079;&#1076;&#1072;&#1085;&#1080;&#1077; &#1086;&#1090;&#1082;&#1088;&#1099;&#1090;&#1086;&#1081; &#1072;&#1082;&#1090;&#1080;&#1074;&#1085;&#1086;&#1081; &#1079;&#1072;&#1103;&#1074;&#1082;&#1080;</text><polygon fill="#181818" points="38,411.2148,28,415.2148,38,419.2148,34,415.2148" style="stroke:#181818;stroke-width:1.0;"/><line style="stroke:#181818;stroke-width:1.0;" x1="32" x2="418" y1="415.2148" y2="415.2148"/><text fill="#000000" font-family="sans-serif" font-size="13" lengthAdjust="spacing" textLength="244" x="44" y="410.4727">&#1055;&#1072;&#1085;&#1077;&#1083;&#1100; &#1091;&#1087;&#1088;&#1072;&#1074;&#1083;&#1077;&#1085;&#1080;&#1103; &#1086;&#1090;&#1082;&#1088;&#1099;&#1090;&#1086;&#1081; &#1079;&#1072;&#1103;&#1074;&#1082;&#1086;&#1081;</text><path d="M424,395.9043 L424,420.9043 L917,420.9043 L917,405.9043 L907,395.9043 L424,395.9043 " fill="#FEFFDD" style="stroke:#181818;stroke-width:0.5;"/><path d="M907,395.9043 L907,405.9043 L917,405.9043 L907,395.9043 " fill="#FEFFDD" style="stroke:#181818;stroke-width:0.5;"/><text fill="#000000" font-family="sans-serif" font-size="13" lengthAdjust="spacing" textLength="472" x="430" y="413.4727">&#1042; &#1086;&#1076;&#1080;&#1085; &#1084;&#1086;&#1084;&#1077;&#1085;&#1090; &#1074;&#1088;&#1077;&#1084;&#1077;&#1085;&#1080; &#1091; &#1087;&#1088;&#1086;&#1076;&#1072;&#1074;&#1094;&#1072; &#1084;&#1086;&#1078;&#1077;&#1090; &#1073;&#1099;&#1090;&#1100; &#1086;&#1090;&#1082;&#1088;&#1099;&#1090;&#1072; &#1090;&#1086;&#1083;&#1100;&#1082;&#1086; 1 &#1079;&#1072;&#1103;&#1074;&#1082;&#1072;.</text><!--SRC=[VLDDRzD04BtxLunwDn9NL5K2SUK277fr4gTO2d4LRtlE1nygHKfLSKA8me7xrefRayJENvZzHxmP9wdZjkIGzUwyUJFptcxGDl60gj-RiDSBDviWePDau1q70nEre-EWRwhpFK5HDuuxr8hDtXPyr6rvdS04hI095VUyRQBJa18bJQWN9HKQs6wdvNbW9zy_a2hFYA-uv8NxohTOKxPkp9dioNtaqdtcp8t9ZH2xvPb44S6dTLE0vsv2NB0bDsIBqoNGPqWlEEUC-3l_v5_yWo-gYWVIAGh-tf1jS8LMBlblZPbpJTht_NNM9KupPENI825vXgAP6z7XgzUx_1Vr4F4AcrBBfUuJs__JpZ3p24DEUCM5EqTBmVluf6zsAtoxXwe9C9Jcvg3BTQZKGuxAhRblNxm4mH_Hd6TDP3ys8GsYetV6uqjHVU4ciC1M8bbnX6_Geohife9OIIiuliPa6b_8g7LYMrc4tahf3msFITAWiQqBZas9bBaRkdEibdmFYMA_B592-I6LKCdyd1Ed909Y_DnzG0Gq43cNI5DtuUGv2KIMXx8oKLAwMU0VbL5aIfkfI5lu0j1IRjn8F8RJqaVgXVqEYNegzZx4naL_wAhL9zGBTwTJyTWDN9j-fIphjp7HyQoqkdNZFlaT5xODTzTI5WrZKXrhMP6IlA-6ZXN-fZBcMch9YznrJklBcqPXUhfZyfEjLFy0]--></g></svg>